#!OML:ASF C:\Vicon Data\Big\jianyuan-13\jianyuan\Session 1\Capture.male.ASF
:FULLY-SPECIFIED
:DEGREES
84
root -8.784545 18.055889 -17.064503 -1.254028 0.261942 -0.407561
lowerback -3.767826 4.633573 1.545897 
upperback 3.106681 6.141730 -0.745404 
thorax 5.575063 3.118088 -1.096772 
lowerneck -3.951043 -5.194101 3.710210 
upperneck 2.595616 -7.052910 -2.243019 
head 1.256553 -3.527332 -1.471328 
rclavicle 0.000000 0.000000 
rhumerus -2.313447 2.034235 -83.311952 
rradius 60.974005 
rwrist 10.534427 
rhand -20.111000 -19.401599 
rfingers 0.000000 
rthumb 6.232639 -49.289951 
lclavicle 0.000000 0.000000 
lhumerus -67.586804 33.839291 38.431358 
lradius 23.393007 
lwrist -63.579234 
lhand -19.048572 3.187330 
lfingers 0.000000 
lthumb 7.258251 33.042841 
rfemur -4.472273 4.965418 26.939148 
rtibia 26.256259 
rfoot -16.237269 -6.012132 
rtoes -26.532035 
lfemur -56.159738 2.943352 -17.935661 
ltibia 22.999397 
lfoot -3.582593 6.335355 
ltoes -49.503491 
85
root -8.789651 18.044537 -16.931642 -1.386633 0.031857 -0.512365
lowerback -3.736779 4.710812 1.627520 
upperback 3.160971 6.242348 -0.771347 
thorax 5.630475 3.172308 -1.158394 
lowerneck -3.865877 -5.196743 3.694730 
upperneck 2.417748 -7.059891 -2.026415 
head 1.192750 -3.528031 -1.392749 
rclavicle 0.000000 0.000000 
rhumerus -2.080379 2.126466 -83.417475 
rradius 61.292732 
rwrist 10.623340 
rhand -19.880383 -19.226460 
rfingers 0.000000 
rthumb 6.455309 -49.108100 
lclavicle 0.000000 0.000000 
lhumerus -68.444922 34.034031 37.111170 
lradius 23.213608 
lwrist -64.144157 
lhand -18.930428 2.734726 
lfingers 0.000000 
lthumb 7.372317 32.586265 
rfemur -3.743049 5.086819 27.130692 
rtibia 26.108138 
rfoot -16.601626 -5.898507 
rtoes -26.260808 
lfemur -56.391374 2.935253 -17.790210 
ltibia 22.614975 
lfoot -3.194825 6.344793 
ltoes -50.123699 
86
root -8.794789 18.025912 -16.796447 -1.523292 -0.234755 -0.527463
lowerback -3.666778 4.787421 1.614285 
upperback 3.210440 6.349055 -0.810113 
thorax 5.650049 3.226194 -1.184566 
lowerneck -3.919452 -5.196208 3.643015 
upperneck 2.353481 -7.062807 -1.886143 
head 1.187919 -3.528079 -1.340441 
rclavicle 0.000000 0.000000 
rhumerus -1.985186 2.495351 -83.386622 
rradius 61.697592 
rwrist 10.403315 
rhand -19.757553 -19.165640 
rfingers 0.000000 
rthumb 6.573860 -49.043581 
lclavicle 0.000000 0.000000 
lhumerus -69.468978 34.303654 35.692445 
lradius 23.110235 
lwrist -65.098008 
lhand -19.061537 2.538680 
lfingers 0.000000 
lthumb 7.245753 32.394568 
rfemur -3.045091 5.331514 27.248198 
rtibia 26.032162 
rfoot -17.048884 -5.867280 
rtoes -26.207099 
lfemur -56.540390 2.799928 -17.578575 
ltibia 22.525220 
lfoot -3.056404 6.570476 
ltoes -49.581846 
87
root -8.794102 18.005580 -16.660142 -1.609280 -0.510085 -0.508044
lowerback -3.632837 4.849241 1.566546 
upperback 3.222443 6.437303 -0.849935 
thorax 5.646261 3.269136 -1.193586 
lowerneck -3.752374 -5.193169 3.591662 
upperneck 2.142059 -7.055610 -1.704701 
head 1.100092 -3.523115 -1.263325 
rclavicle 0.000000 0.000000 
rhumerus -1.888652 3.127633 -83.464745 
rradius 62.105428 
rwrist 9.216160 
rhand -20.262300 -19.465858 
rfingers 0.000000 
rthumb 6.086582 -49.358358 
lclavicle 0.000000 0.000000 
lhumerus -70.823482 34.960720 33.631040 
lradius 22.843078 
lwrist -66.388294 
lhand -19.136548 2.595853 
lfingers 0.000000 
lthumb 7.173383 32.454254 
rfemur -2.491816 5.282082 27.254968 
rtibia 26.092120 
rfoot -17.443216 -5.537520 
rtoes -26.217434 
lfemur -56.669427 2.463959 -17.201723 
ltibia 22.692291 
lfoot -3.351031 7.141578 
ltoes -48.712778 
88
root -8.801331 17.982951 -16.513987 -1.721738 -1.005792 -0.343887
lowerback -3.649998 5.008515 1.334701 
upperback 3.271487 6.669620 -0.939270 
thorax 5.700828 3.377373 -1.132958 
lowerneck -3.727670 -5.193239 3.599945 
upperneck 2.003790 -7.057886 -1.608144 
head 1.055093 -3.523754 -1.230152 
rclavicle 0.000000 0.000000 
rhumerus -1.896194 3.569095 -83.492389 
rradius 62.475158 
rwrist 8.532938 
rhand -20.351930 -19.520118 
rfingers 0.000000 
rthumb 6.000081 -49.415128 
lclavicle 0.000000 0.000000 
lhumerus -71.787776 35.309418 32.049488 
lradius 22.641133 
lwrist -67.315684 
lhand -18.812863 2.081217 
lfingers 0.000000 
lthumb 7.485815 31.928724 
rfemur -1.888585 5.573964 27.165011 
rtibia 26.217960 
rfoot -17.860844 -5.357771 
rtoes -26.102476 
lfemur -56.792062 2.759876 -17.350733 
ltibia 23.171023 
lfoot -3.270968 7.194945 
ltoes -48.287979 
89
root -8.809366 17.959294 -16.370381 -1.769498 -1.573335 -0.261886
lowerback -3.725733 5.153788 1.166415 
upperback 3.306951 6.876382 -0.978593 
thorax 5.773877 3.473759 -1.053066 
lowerneck -3.705762 -5.223353 3.530123 
upperneck 1.869771 -7.097259 -1.475733 
head 1.014761 -3.542972 -1.173617 
rclavicle 0.000000 0.000000 
rhumerus -1.836994 3.836922 -83.611126 
rradius 62.689524 
rwrist 8.558995 
rhand -20.068748 -19.339639 
rfingers 0.000000 
rthumb 6.273440 -49.226717 
lclavicle 0.000000 0.000000 
lhumerus -72.984884 35.739215 30.374481 
lradius 22.494755 
lwrist -68.575104 
lhand -19.006305 2.259216 
lfingers 0.000000 
lthumb 7.299108 32.113298 
rfemur -1.401672 5.961488 27.197572 
rtibia 26.401040 
rfoot -18.231311 -5.309830 
rtoes -26.209050 
lfemur -56.836380 2.782914 -17.023448 
ltibia 23.781337 
lfoot -3.308374 7.557079 
ltoes -47.777402 
90
root -8.812691 17.931019 -16.227166 -1.830310 -2.139652 -0.134349
lowerback -3.729040 5.305897 1.010649 
upperback 3.328108 7.095507 -1.081965 
thorax 5.800166 3.578417 -1.052200 
lowerneck -3.613076 -5.199234 3.532439 
upperneck 1.635185 -7.066008 -1.290277 
head 0.932198 -3.526513 -1.106797 
rclavicle 0.000000 0.000000 
rhumerus -1.837923 4.107169 -83.776549 
rradius 62.832833 
rwrist 8.321109 
rhand -20.024192 -19.202599 
rfingers 0.000000 
rthumb 6.316448 -49.088402 
lclavicle 0.000000 0.000000 
lhumerus -73.828523 36.044378 28.967279 
lradius 22.315425 
lwrist -69.178779 
lhand -18.804429 2.116776 
lfingers 0.000000 
lthumb 7.493913 31.964010 
rfemur -0.968678 6.003782 27.102088 
rtibia 26.636098 
rfoot -18.544099 -4.996018 
rtoes -26.365651 
lfemur -56.790846 2.886189 -16.828037 
ltibia 24.413202 
lfoot -3.150271 7.680333 
ltoes -47.568692 
91
root -8.817748 17.905858 -16.075581 -1.922942 -2.769313 0.041092
lowerback -3.828257 5.476742 0.789692 
upperback 3.383747 7.342873 -1.156359 
thorax 5.905799 3.693167 -0.971755 
lowerneck -3.714232 -5.205267 3.599242 
upperneck 1.616156 -7.078919 -1.372304 
head 0.938160 -3.534176 -1.146639 
rclavicle 0.000000 0.000000 
rhumerus -1.888886 4.502130 -83.845464 
rradius 63.043104 
rwrist 8.261440 
rhand -19.912117 -19.300090 
rfingers 0.000000 
rthumb 6.424685 -49.182647 
lclavicle 0.000000 0.000000 
lhumerus -74.705475 36.287442 27.713350 
lradius 22.162631 
lwrist -70.045493 
lhand -18.997110 2.062028 
lfingers 0.000000 
lthumb 7.307926 31.915777 
rfemur -0.466420 6.440930 27.036436 
rtibia 26.931666 
rfoot -18.972913 -4.944310 
rtoes -26.140772 
lfemur -56.482654 3.062858 -16.690844 
ltibia 24.962214 
lfoot -3.066639 7.608696 
ltoes -47.375170 
